<svg width="14" height="14" viewBox="0 0 14 14" fill="none" xmlns="http://www.w3.org/2000/svg">
<path d="M7 14C10.866 14 14 10.866 14 7C14 3.13401 10.866 0 7 0C3.13401 0 0 3.13401 0 7C0 10.866 3.13401 14 7 14Z" fill="#4D69E9"/>
<path d="M7.48124 4.96561C7.13124 5.16249 7.01093 5.59999 7.2078 5.94999C7.40468 6.29999 7.84218 6.4203 8.19218 6.22343C8.54218 6.02655 8.66249 5.58905 8.46561 5.23905C8.26874 4.88905 7.83124 4.7578 7.48124 4.96561ZM6.79218 3.72968C6.55155 3.87186 6.46405 4.17811 6.60624 4.42968C6.74843 4.6703 7.05468 4.7578 7.30624 4.61561C7.5578 4.47343 7.63436 4.16718 7.49218 3.91561C7.34999 3.67499 7.0328 3.59843 6.79218 3.72968ZM6.79218 9.42811C6.55155 9.5703 6.46405 9.87655 6.60624 10.1281C6.74843 10.3687 7.05468 10.4562 7.30624 10.3141C7.54686 10.1719 7.63436 9.86561 7.49218 9.61405C7.34999 9.37343 7.0328 9.29686 6.79218 9.42811ZM9.24218 5.14061C9.00155 5.2828 8.91405 5.58905 9.05624 5.84061C9.19843 6.08124 9.50467 6.16874 9.75624 6.02655C10.0078 5.88436 10.0844 5.57811 9.94217 5.32655C9.79999 5.08593 9.49374 5.00936 9.24218 5.14061ZM4.28749 7.9953C4.04686 8.13749 3.95936 8.44374 4.10155 8.6953C4.24374 8.93593 4.54999 9.02343 4.80155 8.88124C5.04218 8.73905 5.12968 8.4328 4.98749 8.18124C4.83436 7.94061 4.52811 7.85311 4.28749 7.9953ZM4.24374 5.14061C4.00311 5.2828 3.91561 5.58905 4.0578 5.84061C4.19999 6.09218 4.50624 6.16874 4.7578 6.02655C4.99843 5.88436 5.08593 5.57811 4.94374 5.32655C4.80155 5.08593 4.4953 5.00936 4.24374 5.14061ZM9.24218 7.96249C9.00155 8.10468 8.91405 8.41093 9.05624 8.66249C9.19843 8.90311 9.50467 8.99061 9.75624 8.84843C9.99686 8.70624 10.0844 8.39999 9.94217 8.14843C9.79999 7.9078 9.49374 7.8203 9.24218 7.96249ZM10.5437 6.66093C10.3469 6.7703 10.2812 7.02186 10.3906 7.21874C10.5 7.41561 10.7515 7.48124 10.9484 7.37186C11.1453 7.26249 11.2109 7.01093 11.1015 6.81405C10.9812 6.61718 10.7297 6.55155 10.5437 6.66093ZM3.06249 6.66093C2.86561 6.7703 2.79999 7.02186 2.90936 7.21874C3.01874 7.41561 3.2703 7.48124 3.46718 7.37186C3.66405 7.26249 3.71874 6.99999 3.60936 6.81405C3.49999 6.61718 3.25936 6.55155 3.06249 6.66093ZM8.50936 3.78436C8.50936 4.00311 8.68436 4.18905 8.90311 4.19999C9.12186 4.21093 9.3078 4.02499 9.31874 3.80624C9.31874 3.58749 9.14374 3.40155 8.92499 3.39061C8.6953 3.39061 8.50936 3.56561 8.50936 3.78436ZM4.68124 10.2156C4.68124 10.4344 4.85624 10.6203 5.07499 10.6312C5.29374 10.6312 5.47968 10.4562 5.49061 10.2375C5.49061 10.0187 5.31561 9.8328 5.09686 9.82186C4.87811 9.81093 4.69218 9.99686 4.68124 10.2156ZM4.91093 4.13436C5.1078 4.24374 5.34843 4.17811 5.46874 3.98124C5.57811 3.78436 5.51249 3.54374 5.31561 3.42343C5.11874 3.31405 4.87811 3.37968 4.7578 3.57655C4.64843 3.77343 4.71405 4.02499 4.91093 4.13436ZM8.68436 10.5875C8.88124 10.6969 9.12186 10.6312 9.24218 10.4344C9.35155 10.2375 9.28592 9.99686 9.08905 9.87655C8.89217 9.76718 8.65155 9.8328 8.53124 10.0297C8.42186 10.2266 8.48749 10.4781 8.68436 10.5875ZM8.31249 6.40936C7.96249 6.60624 7.84218 7.04374 8.03905 7.39374C8.23593 7.74374 8.67343 7.86405 9.02343 7.66718C9.37343 7.4703 9.49374 7.0328 9.29686 6.6828C9.09999 6.3328 8.65155 6.21249 8.31249 6.40936ZM7.48124 7.85311C7.13124 8.04999 7.01093 8.48749 7.2078 8.83749C7.40468 9.18749 7.84218 9.3078 8.19218 9.11093C8.54218 8.91405 8.66249 8.47655 8.46561 8.12655C8.26874 7.77655 7.83124 7.65624 7.48124 7.85311ZM6.51874 4.96561C6.86874 5.16249 6.98905 5.59999 6.79218 5.94999C6.5953 6.29999 6.1578 6.4203 5.8078 6.22343C5.4578 6.02655 5.33749 5.58905 5.53436 5.23905C5.73124 4.88905 6.16874 4.7578 6.51874 4.96561ZM5.68749 6.40936C6.03749 6.60624 6.1578 7.04374 5.96093 7.39374C5.76405 7.74374 5.32655 7.86405 4.97655 7.66718C4.62655 7.4703 4.50624 7.0328 4.70311 6.6828C4.89999 6.3328 5.34843 6.21249 5.68749 6.40936ZM6.51874 7.85311C6.86874 8.04999 6.98905 8.48749 6.79218 8.83749C6.5953 9.18749 6.1578 9.3078 5.8078 9.11093C5.4578 8.91405 5.33749 8.47655 5.53436 8.12655C5.73124 7.77655 6.16874 7.65624 6.51874 7.85311ZM7.31718 2.46093C7.31718 2.63593 7.17499 2.77811 6.99999 2.77811C6.82499 2.77811 6.6828 2.63593 6.6828 2.46093C6.6828 2.28593 6.82499 2.14374 6.99999 2.14374C7.16405 2.14374 7.31718 2.28593 7.31718 2.46093ZM7.31718 11.5391C7.31718 11.7141 7.17499 11.8562 6.99999 11.8562C6.82499 11.8562 6.6828 11.7141 6.6828 11.5391C6.6828 11.3641 6.82499 11.2219 6.99999 11.2219C7.16405 11.2219 7.31718 11.3641 7.31718 11.5391ZM3.20468 4.47343C3.3578 4.56093 3.41249 4.7578 3.32499 4.91093C3.23749 5.06405 3.04061 5.11874 2.88749 5.03124C2.73436 4.94374 2.67968 4.74686 2.76718 4.59374C2.85468 4.44061 3.05155 4.38593 3.20468 4.47343ZM11.0906 8.96874C11.2437 9.05624 11.2984 9.25311 11.2109 9.40624C11.1234 9.55936 10.9265 9.61405 10.7734 9.52655C10.6203 9.43905 10.5656 9.24218 10.6531 9.08905C10.7406 8.93593 10.9375 8.88124 11.0906 8.96874ZM2.88749 8.96874C3.04061 8.88124 3.23749 8.93593 3.32499 9.08905C3.41249 9.24218 3.3578 9.43905 3.20468 9.52655C3.05155 9.61405 2.85468 9.55936 2.76718 9.40624C2.67968 9.25311 2.73436 9.05624 2.88749 8.96874ZM10.7734 4.47343C10.9265 4.38593 11.1234 4.44061 11.2109 4.59374C11.2984 4.74686 11.2437 4.94374 11.0906 5.03124C10.9375 5.11874 10.7406 5.06405 10.6531 4.91093C10.5656 4.7578 10.6203 4.56093 10.7734 4.47343ZM4.70311 2.66874C4.70311 2.81093 4.5828 2.93124 4.44061 2.93124C4.29843 2.93124 4.17811 2.81093 4.17811 2.66874C4.17811 2.52655 4.29843 2.40624 4.44061 2.40624C4.5828 2.40624 4.70311 2.51561 4.70311 2.66874ZM9.82186 11.3422C9.82186 11.4844 9.70155 11.6047 9.55936 11.6047C9.41718 11.6047 9.29686 11.4844 9.29686 11.3422C9.29686 11.2 9.41718 11.0797 9.55936 11.0797C9.70155 11.0797 9.82186 11.2 9.82186 11.3422ZM9.66874 2.88749C9.53749 2.95311 9.38436 2.90936 9.3078 2.78905C9.23124 2.66874 9.28592 2.50468 9.40624 2.42811C9.53749 2.36249 9.69061 2.40624 9.76717 2.52655C9.84374 2.6578 9.79999 2.82186 9.66874 2.88749ZM4.5828 11.5828C4.45155 11.6484 4.29843 11.6047 4.22186 11.4844C4.15624 11.3531 4.19999 11.2 4.3203 11.1234C4.45155 11.0578 4.60468 11.1016 4.68124 11.2219C4.7578 11.3531 4.70311 11.5062 4.5828 11.5828ZM11.9 7.21874C11.7797 7.14218 11.7359 6.98905 11.8015 6.8578C11.8781 6.73749 12.0312 6.69374 12.1625 6.75936C12.2937 6.82499 12.3265 6.98905 12.2609 7.1203C12.1844 7.25155 12.0312 7.28436 11.9 7.21874ZM1.82655 7.24061C1.70624 7.16405 1.66249 7.01093 1.72811 6.87968C1.80468 6.75936 1.9578 6.71561 2.08905 6.78124C2.20936 6.8578 2.25311 7.01093 2.18749 7.14218C2.11093 7.27343 1.9578 7.31718 1.82655 7.24061Z" fill="white"/>
</svg>
