<svg width="14" height="14" viewBox="0 0 14 14" fill="none" xmlns="http://www.w3.org/2000/svg">
<path d="M7 14C10.866 14 14 10.866 14 7C14 3.13401 10.866 0 7 0C3.13401 0 0 3.13401 0 7C0 10.866 3.13401 14 7 14Z" fill="#DD8A26"/>
<path d="M10.3687 8.49843C10.3797 7.69999 10.0297 6.97811 9.17654 6.67186C9.7781 6.38749 10.1281 5.79686 10.139 5.07499C10.1609 4.2328 9.6906 3.57655 9.01247 3.31405C8.69529 3.1828 8.35622 3.10624 8.00622 3.10624L8.0281 1.9578C7.52497 1.94686 7.25154 1.93593 7.25154 1.93593C7.25154 1.93593 7.25154 2.31874 7.22966 3.07343L6.4531 3.06249L6.47497 1.92499C5.96091 1.90311 5.69841 1.91405 5.69841 1.91405C5.69841 1.91405 5.69841 2.29686 5.67654 3.05155L4.15623 3.04061C4.15623 3.74061 4.12341 4.09061 4.12341 4.09061C4.27654 4.10155 4.42966 4.11249 4.59373 4.10155C4.82341 4.11249 4.99841 4.29843 4.99841 4.52811L4.93279 9.07811C4.92185 9.3078 4.73591 9.4828 4.50623 9.4828L4.04685 9.47186C4.04685 10.1719 4.01404 10.5219 4.01404 10.5219C4.01404 10.5219 4.51716 10.5328 5.53435 10.5656L5.51248 11.7031C6.0156 11.7141 6.28904 11.725 6.28904 11.725C6.28904 11.725 6.28904 11.3422 6.31091 10.5875L7.10935 10.5984L7.08747 11.7359C7.5906 11.7469 7.86404 11.7578 7.86404 11.7578C7.86404 11.7578 7.86404 11.375 7.88591 10.6203C8.2031 10.6312 8.52029 10.5984 8.82654 10.5219C9.71247 10.2484 10.3359 9.43905 10.3687 8.49843ZM6.47497 4.1453L7.64529 4.15624C7.86404 4.15624 8.08279 4.18905 8.2906 4.27655C8.58591 4.44061 8.7281 4.77968 8.71716 5.14061C8.69529 5.74218 8.33435 6.13593 7.77654 6.11405L6.4531 6.08124L6.47497 4.1453ZM8.30154 9.41718C8.12654 9.4828 7.95154 9.51561 7.7656 9.49374L6.3656 9.46093L6.40935 7.21874L7.86404 7.26249C8.54216 7.26249 8.94685 7.7328 8.91404 8.38905C8.91404 8.84843 8.68435 9.26405 8.30154 9.41718Z" fill="white"/>
</svg>
